<svg width="92" height="33" viewBox="0 0 92 33" fill="none" xmlns="http://www.w3.org/2000/svg">
<path d="M13.675 21.45H14.325C14.4083 21.9167 14.4833 22.5083 14.55 23.225C14.6167 23.925 14.6333 24.6083 14.6 25.275C14.35 25.475 14.05 25.6417 13.7 25.775C13.35 25.8917 12.975 25.9917 12.575 26.075C12.1917 26.1583 11.7917 26.2167 11.375 26.25C10.975 26.2833 10.5917 26.3 10.225 26.3C8.825 26.3 7.575 26.125 6.475 25.775C5.375 25.4083 4.44167 24.8583 3.675 24.125C2.925 23.3917 2.34167 22.4583 1.925 21.325C1.525 20.175 1.325 18.8167 1.325 17.25C1.325 15.6167 1.55 14.2333 2 13.1C2.45 11.95 3.05833 11.0167 3.825 10.3C4.59167 9.56667 5.48333 9.03333 6.5 8.7C7.51667 8.36667 8.58333 8.2 9.7 8.2C10.8 8.2 11.725 8.275 12.475 8.425C13.225 8.55833 13.8833 8.76667 14.45 9.05C14.45 9.31667 14.4417 9.63333 14.425 10C14.4083 10.35 14.3833 10.725 14.35 11.125C14.3167 11.525 14.275 11.9167 14.225 12.3C14.175 12.6833 14.125 13.0333 14.075 13.35H13.425L12.125 9.75C11.9417 9.65 11.6333 9.58333 11.2 9.55C10.7833 9.51667 10.3667 9.5 9.95 9.5C9.11667 9.5 8.325 9.65833 7.575 9.975C6.84167 10.275 6.19167 10.75 5.625 11.4C5.075 12.0333 4.63333 12.8417 4.3 13.825C3.96667 14.7917 3.8 15.9333 3.8 17.25C3.8 18.4333 3.95 19.5083 4.25 20.475C4.55 21.425 4.98333 22.2417 5.55 22.925C6.11667 23.5917 6.80833 24.1083 7.625 24.475C8.44167 24.825 9.36667 25 10.4 25C10.95 25 11.4083 24.9583 11.775 24.875C12.1417 24.7917 12.3833 24.6833 12.5 24.55L13.675 21.45ZM16.5035 19.75C16.5035 18.7 16.6368 17.775 16.9035 16.975C17.1868 16.1583 17.5868 15.475 18.1035 14.925C18.6202 14.3583 19.2368 13.9333 19.9535 13.65C20.6868 13.35 21.4952 13.2 22.3785 13.2C23.4118 13.2 24.3035 13.3583 25.0535 13.675C25.8035 13.9917 26.4118 14.4417 26.8785 15.025C27.3618 15.5917 27.7118 16.275 27.9285 17.075C28.1618 17.875 28.2785 18.7667 28.2785 19.75C28.2785 21.85 27.7452 23.4667 26.6785 24.6C25.6118 25.7333 24.1785 26.3 22.3785 26.3C21.3785 26.3 20.5118 26.15 19.7785 25.85C19.0452 25.5333 18.4368 25.0917 17.9535 24.525C17.4702 23.9417 17.1035 23.25 16.8535 22.45C16.6202 21.6333 16.5035 20.7333 16.5035 19.75ZM18.9035 19.75C18.9035 20.5 18.9702 21.2083 19.1035 21.875C19.2535 22.5417 19.4785 23.125 19.7785 23.625C20.0952 24.1083 20.5035 24.4917 21.0035 24.775C21.5035 25.0583 22.1035 25.2 22.8035 25.2C23.7035 25.2 24.4368 24.7583 25.0035 23.875C25.5868 22.9917 25.8785 21.6167 25.8785 19.75C25.8785 18.9833 25.8035 18.275 25.6535 17.625C25.5202 16.9583 25.3035 16.3833 25.0035 15.9C24.7035 15.4 24.3202 15.0083 23.8535 14.725C23.3868 14.4417 22.8285 14.3 22.1785 14.3C21.1952 14.3 20.4035 14.7417 19.8035 15.625C19.2035 16.5083 18.9035 17.8833 18.9035 19.75ZM36.6719 23.15C36.6719 22.6833 36.5219 22.2917 36.2219 21.975C35.9385 21.6417 35.5719 21.3333 35.1219 21.05C34.6719 20.7667 34.1885 20.4917 33.6719 20.225C33.1719 19.9583 32.6969 19.65 32.2469 19.3C31.7969 18.9333 31.4219 18.5167 31.1219 18.05C30.8385 17.5833 30.6969 17.0083 30.6969 16.325C30.6969 15.875 30.7969 15.4583 30.9969 15.075C31.2135 14.6917 31.4969 14.3667 31.8469 14.1C32.1969 13.8167 32.6052 13.6 33.0719 13.45C33.5385 13.2833 34.0385 13.2 34.5719 13.2C35.4719 13.2 36.2052 13.25 36.7719 13.35C37.3552 13.45 37.9135 13.5917 38.4469 13.775C38.3802 14.3083 38.2969 14.85 38.1969 15.4C38.1135 15.9333 37.9885 16.4833 37.8219 17.05H37.1969L36.2469 14.5C36.0469 14.4167 35.8219 14.3667 35.5719 14.35C35.3219 14.3167 35.0635 14.3 34.7969 14.3C34.4969 14.3 34.2302 14.3583 33.9969 14.475C33.7802 14.575 33.5885 14.7083 33.4219 14.875C33.2719 15.0417 33.1552 15.2333 33.0719 15.45C32.9885 15.6667 32.9469 15.8833 32.9469 16.1C32.9469 16.55 33.0885 16.9417 33.3719 17.275C33.6719 17.5917 34.0469 17.8917 34.4969 18.175C34.9469 18.4417 35.4219 18.7083 35.9219 18.975C36.4385 19.2417 36.9219 19.5417 37.3719 19.875C37.8219 20.2083 38.1885 20.6 38.4719 21.05C38.7719 21.4833 38.9219 22.0083 38.9219 22.625C38.9219 23.1917 38.7969 23.7 38.5469 24.15C38.3135 24.6 37.9802 24.9833 37.5469 25.3C37.1302 25.6167 36.6385 25.8583 36.0719 26.025C35.5219 26.2083 34.9302 26.3 34.2969 26.3C33.5802 26.3 32.9219 26.2333 32.3219 26.1C31.7219 25.9833 31.0969 25.8083 30.4469 25.575C30.4802 24.975 30.5552 24.4 30.6719 23.85C30.7885 23.2833 30.9385 22.7417 31.1219 22.225H31.7469L32.8469 24.95C33.0302 25.0833 33.2469 25.1583 33.4969 25.175C33.7635 25.1917 34.0052 25.2 34.2219 25.2C34.9552 25.2 35.5469 25 35.9969 24.6C36.4469 24.2 36.6719 23.7167 36.6719 23.15ZM40.4873 14.1C41.1206 13.7 41.7873 13.4167 42.4873 13.25V11.125C42.704 10.9417 42.954 10.7833 43.2373 10.65C43.5373 10.5 43.829 10.3583 44.1123 10.225H44.7373V13.5H48.4873V14.75H44.7373V22C44.7373 23 44.8956 23.7083 45.2123 24.125C45.529 24.5417 46.004 24.75 46.6373 24.75C46.9373 24.75 47.3123 24.7333 47.7623 24.7C48.2123 24.65 48.5956 24.5667 48.9123 24.45L49.0873 24.825C48.954 24.975 48.7623 25.1333 48.5123 25.3C48.279 25.4667 48.004 25.625 47.6873 25.775C47.3873 25.925 47.054 26.05 46.6873 26.15C46.3206 26.25 45.9456 26.3 45.5623 26.3C44.5623 26.3 43.7956 26.0167 43.2623 25.45C42.7456 24.8833 42.4873 23.9667 42.4873 22.7V14.75H40.4873V14.1Z" fill="#EC7070"/>
<path d="M62.575 8.5C62.5583 9.16667 62.525 9.84167 62.475 10.525C62.4417 11.1917 62.3833 11.8667 62.3 12.55H61.65L60.625 9.8H55.175V16.425H59.25L60.225 14.575H60.85C60.95 16.225 60.95 17.9083 60.85 19.625H60.225L59.25 17.725H55.175V24.7H60.925L62.15 21.7H62.775C62.8917 22.4 62.975 23.1083 63.025 23.825C63.075 24.5417 63.0833 25.2667 63.05 26H50.725V25.275C51.3083 25.0083 51.9917 24.8083 52.775 24.675V9.85C52.4417 9.78333 52.1 9.7 51.75 9.6C51.4 9.48333 51.0583 9.35833 50.725 9.225V8.5H62.575ZM72.0008 19.3L75.9508 24.775C76.1841 24.8583 76.4091 24.95 76.6258 25.05C76.8591 25.1333 77.0758 25.2417 77.2758 25.375V26H72.1508V25.4C72.3841 25.2667 72.6008 25.15 72.8008 25.05C73.0008 24.9333 73.2008 24.8417 73.4008 24.775L70.6258 20.675L67.8258 24.775C68.0591 24.8583 68.2758 24.95 68.4758 25.05C68.6758 25.15 68.8758 25.2583 69.0758 25.375V26H64.8008V25.375C65.2674 25.0917 65.7341 24.8917 66.2008 24.775L69.9258 19.8L66.1758 14.75C65.9424 14.6667 65.7258 14.5833 65.5258 14.5C65.3424 14.4 65.1508 14.2833 64.9508 14.15V13.5H69.9758V14.125C69.7758 14.2583 69.5758 14.3833 69.3758 14.5C69.1924 14.6 68.9841 14.6833 68.7508 14.75L71.3508 18.5L73.9008 14.75C73.3341 14.5667 72.9174 14.3667 72.6508 14.15V13.5H76.8258V14.15C76.5091 14.3667 76.0424 14.5667 75.4258 14.75L72.0008 19.3ZM83.8396 31H78.2896V30.375C78.8563 30.1083 79.4063 29.9083 79.9396 29.775V14.95L78.2896 14.75V14.1C78.823 13.8667 79.3646 13.6833 79.9146 13.55C80.4813 13.4 81.0313 13.2833 81.5646 13.2H82.1896V16H82.2146C82.548 15.15 83.0146 14.475 83.6146 13.975C84.2146 13.4583 84.998 13.2 85.9646 13.2C87.448 13.2 88.598 13.6917 89.4146 14.675C90.2313 15.6583 90.6396 17.2583 90.6396 19.475C90.6396 20.525 90.498 21.475 90.2146 22.325C89.948 23.175 89.5563 23.8917 89.0396 24.475C88.5396 25.0583 87.923 25.5083 87.1896 25.825C86.473 26.1417 85.673 26.3 84.7896 26.3C84.173 26.3 83.6896 26.2583 83.3396 26.175C82.9896 26.1083 82.6063 25.9833 82.1896 25.8V29.775C82.4563 29.8083 82.723 29.8667 82.9896 29.95C83.2563 30.05 83.5396 30.1917 83.8396 30.375V31ZM85.1646 14.75C84.348 14.75 83.698 15.0083 83.2146 15.525C82.7313 16.0417 82.3896 16.75 82.1896 17.65V24.65C82.4896 24.8333 82.823 24.975 83.1896 25.075C83.573 25.1583 84.0646 25.2 84.6646 25.2C85.2146 25.2 85.7063 25.0583 86.1396 24.775C86.5896 24.4917 86.9646 24.0917 87.2646 23.575C87.5813 23.0583 87.823 22.4583 87.9896 21.775C88.1563 21.075 88.2396 20.3083 88.2396 19.475C88.2396 18.7917 88.1813 18.1667 88.0646 17.6C87.9646 17.0167 87.7896 16.5167 87.5396 16.1C87.3063 15.6667 86.9896 15.3333 86.5896 15.1C86.2063 14.8667 85.7313 14.75 85.1646 14.75Z" fill="black"/>
</svg>
